<svg width="14" height="18" viewBox="0 0 14 18" fill="none" xmlns="http://www.w3.org/2000/svg">
<path d="M11.1801 4.87781C11.1801 2.57003 9.32846 0.718445 7.02069 0.718445C4.71291 0.718445 2.86133 2.57003 2.86133 4.87781C2.86133 7.15875 4.71291 9.01033 7.02069 9.01033C9.32846 9.01033 11.1801 7.15875 11.1801 4.87781ZM3.93471 4.87781C3.93471 3.18723 5.33011 1.79183 7.02069 1.79183C8.71127 1.79183 10.1067 3.18723 10.1067 4.87781C10.1067 6.56838 8.71127 7.93695 7.02069 7.93695C5.33011 7.93695 3.93471 6.56838 3.93471 4.87781Z" fill="black"/>
<path d="M0.392643 14.914C-0.0903795 16.0947 0.768328 17.4096 2.05639 17.4096H12.1999C13.4879 17.4096 14.3466 16.0947 13.8636 14.914C12.6024 11.9085 10.0531 9.86908 7.12813 9.86908C4.17632 9.86908 1.62703 11.9085 0.392643 14.914ZM7.12813 10.9425C9.54324 10.9425 11.7437 12.633 12.8707 15.3433C13.0049 15.6654 12.8707 15.9337 12.8171 16.0142C12.7634 16.1215 12.5487 16.3362 12.1999 16.3362H2.05639C1.70754 16.3362 1.5197 16.1215 1.43919 16.0142C1.38552 15.9069 1.25135 15.6654 1.38552 15.3433C2.51258 12.633 4.71301 10.9425 7.12813 10.9425Z" fill="black"/>
</svg>
