<svg width="141" height="19" viewBox="0 0 141 19" fill="none" xmlns="http://www.w3.org/2000/svg">
<path d="M8.68262 13.1719V15H2.95605V13.1719H8.68262ZM3.71387 3.625V15H1.37012V3.625H3.71387ZM16.042 3.625H18.3779V11.1406C18.3779 12.0156 18.1904 12.7526 17.8154 13.3516C17.4456 13.9505 16.9326 14.401 16.2764 14.7031C15.6253 15.0052 14.8753 15.1562 14.0264 15.1562C13.1774 15.1562 12.4222 15.0052 11.7607 14.7031C11.1045 14.401 10.5889 13.9505 10.2139 13.3516C9.84408 12.7526 9.65918 12.0156 9.65918 11.1406V3.625H12.0029V11.1406C12.0029 11.651 12.0837 12.0677 12.2451 12.3906C12.4066 12.7135 12.6383 12.9505 12.9404 13.1016C13.2477 13.2526 13.6097 13.3281 14.0264 13.3281C14.4535 13.3281 14.8154 13.2526 15.1123 13.1016C15.4144 12.9505 15.6436 12.7135 15.7998 12.3906C15.9613 12.0677 16.042 11.651 16.042 11.1406V3.625ZM21.3779 3.625H23.3623L26.2842 11.9766L29.2061 3.625H31.1904L27.0811 15H25.4873L21.3779 3.625ZM20.3076 3.625H22.2842L22.6436 11.7656V15H20.3076V3.625ZM30.2842 3.625H32.2686V15H29.9248V11.7656L30.2842 3.625ZM39.0889 5.57031L35.9951 15H33.5029L37.7295 3.625H39.3154L39.0889 5.57031ZM41.6592 15L38.5576 5.57031L38.3076 3.625H39.9092L44.1592 15H41.6592ZM41.5186 10.7656V12.6016H35.5107V10.7656H41.5186ZM49.3311 3.625V15H46.9951V3.625H49.3311ZM52.8311 3.625V5.46094H43.5498V3.625H52.8311ZM56.6592 3.625V15H54.3232V3.625H56.6592ZM65.4482 11.2266H67.7842C67.7373 11.9922 67.5264 12.6719 67.1514 13.2656C66.7816 13.8594 66.2633 14.3229 65.5967 14.6562C64.9352 14.9896 64.1383 15.1562 63.2061 15.1562C62.4769 15.1562 61.8232 15.0312 61.2451 14.7812C60.667 14.526 60.1722 14.1615 59.7607 13.6875C59.3545 13.2135 59.0446 12.6406 58.8311 11.9688C58.6175 11.2969 58.5107 10.5443 58.5107 9.71094V8.92188C58.5107 8.08854 58.6201 7.33594 58.8389 6.66406C59.0628 5.98698 59.3805 5.41146 59.792 4.9375C60.2087 4.46354 60.7061 4.09896 61.2842 3.84375C61.8623 3.58854 62.5081 3.46094 63.2217 3.46094C64.1696 3.46094 64.9691 3.63281 65.6201 3.97656C66.2764 4.32031 66.7842 4.79427 67.1436 5.39844C67.5081 6.0026 67.7269 6.6901 67.7998 7.46094H65.4561C65.43 7.0026 65.3389 6.61458 65.1826 6.29688C65.0264 5.97396 64.7894 5.73177 64.4717 5.57031C64.1592 5.40365 63.7425 5.32031 63.2217 5.32031C62.8311 5.32031 62.4899 5.39323 62.1982 5.53906C61.9066 5.6849 61.6618 5.90625 61.4639 6.20312C61.266 6.5 61.1175 6.875 61.0186 7.32812C60.9248 7.77604 60.8779 8.30208 60.8779 8.90625V9.71094C60.8779 10.2995 60.9222 10.8177 61.0107 11.2656C61.0993 11.7083 61.2347 12.0833 61.417 12.3906C61.6045 12.6927 61.8441 12.9219 62.1357 13.0781C62.4326 13.2292 62.7894 13.3047 63.2061 13.3047C63.6956 13.3047 64.0993 13.2266 64.417 13.0703C64.7347 12.9141 64.9769 12.6823 65.1436 12.375C65.3154 12.0677 65.417 11.6849 65.4482 11.2266Z" fill="black"/>
<path d="M88.8467 13.7734V15H82.8232V13.7734H88.8467ZM83.1279 3.625V15H81.6201V3.625H83.1279ZM88.0498 8.51562V9.74219H82.8232V8.51562H88.0498ZM88.7686 3.625V4.85938H82.8232V3.625H88.7686ZM94.3857 13.2734L97.7373 3.625H99.3701L95.1592 15H93.9951L94.3857 13.2734ZM91.2529 3.625L94.5732 13.2734L94.9873 15H93.8232L89.6201 3.625H91.2529ZM108.128 13.7734V15H102.104V13.7734H108.128ZM102.409 3.625V15H100.901V3.625H102.409ZM107.331 8.51562V9.74219H102.104V8.51562H107.331ZM108.05 3.625V4.85938H102.104V3.625H108.05ZM118.745 3.625V15H117.229L111.503 6.22656V15H109.995V3.625H111.503L117.253 12.4219V3.625H118.745ZM125.386 3.625V15H123.901V3.625H125.386ZM129.042 3.625V4.85938H120.253V3.625H129.042ZM136.667 12.125C136.667 11.8594 136.625 11.625 136.542 11.4219C136.464 11.2135 136.323 11.026 136.12 10.8594C135.922 10.6927 135.646 10.5339 135.292 10.3828C134.943 10.2318 134.5 10.0781 133.964 9.92188C133.401 9.75521 132.894 9.57031 132.44 9.36719C131.987 9.15885 131.599 8.92188 131.276 8.65625C130.953 8.39062 130.706 8.08594 130.534 7.74219C130.362 7.39844 130.276 7.00521 130.276 6.5625C130.276 6.11979 130.368 5.71094 130.55 5.33594C130.732 4.96094 130.993 4.63542 131.331 4.35938C131.675 4.07812 132.084 3.85938 132.558 3.70312C133.032 3.54688 133.56 3.46875 134.144 3.46875C134.998 3.46875 135.722 3.63281 136.315 3.96094C136.914 4.28385 137.37 4.70833 137.683 5.23438C137.995 5.75521 138.151 6.3125 138.151 6.90625H136.651C136.651 6.47917 136.56 6.10156 136.378 5.77344C136.196 5.4401 135.92 5.17969 135.55 4.99219C135.18 4.79948 134.711 4.70312 134.144 4.70312C133.607 4.70312 133.164 4.78385 132.815 4.94531C132.466 5.10677 132.206 5.32552 132.034 5.60156C131.868 5.8776 131.784 6.19271 131.784 6.54688C131.784 6.78646 131.834 7.00521 131.933 7.20312C132.037 7.39583 132.196 7.57552 132.409 7.74219C132.628 7.90885 132.904 8.0625 133.237 8.20312C133.576 8.34375 133.979 8.47917 134.448 8.60938C135.094 8.79167 135.651 8.99479 136.12 9.21875C136.589 9.44271 136.974 9.69531 137.276 9.97656C137.584 10.2526 137.81 10.5677 137.956 10.9219C138.107 11.2708 138.183 11.6667 138.183 12.1094C138.183 12.5729 138.089 12.9922 137.901 13.3672C137.714 13.7422 137.446 14.0625 137.097 14.3281C136.748 14.5938 136.328 14.7995 135.839 14.9453C135.354 15.0859 134.813 15.1562 134.214 15.1562C133.688 15.1562 133.17 15.0833 132.659 14.9375C132.154 14.7917 131.693 14.5729 131.276 14.2812C130.865 13.9896 130.534 13.6302 130.284 13.2031C130.039 12.7708 129.917 12.2708 129.917 11.7031H131.417C131.417 12.0938 131.493 12.4297 131.644 12.7109C131.795 12.987 132 13.2161 132.261 13.3984C132.526 13.5807 132.826 13.7161 133.159 13.8047C133.498 13.888 133.849 13.9297 134.214 13.9297C134.74 13.9297 135.185 13.8568 135.55 13.7109C135.914 13.5651 136.19 13.3568 136.378 13.0859C136.571 12.8151 136.667 12.4948 136.667 12.125Z" fill="black"/>
<line x1="74.8394" y1="3.41425" x2="74.8394" y2="15.5858" stroke="black" stroke-width="0.5"/>
</svg>
