<svg width="215" height="30" viewBox="0 0 215 30" fill="none" xmlns="http://www.w3.org/2000/svg">
<path d="M13.3672 20.6436V23.5H4.41943V20.6436H13.3672ZM5.60352 5.72656V23.5H1.94141V5.72656H5.60352ZM24.8662 5.72656H28.5161V17.4697C28.5161 18.8369 28.2231 19.9884 27.6372 20.9243C27.0594 21.8602 26.2578 22.5641 25.2324 23.0361C24.2152 23.5081 23.0433 23.7441 21.7168 23.7441C20.3903 23.7441 19.2103 23.5081 18.1768 23.0361C17.1514 22.5641 16.3457 21.8602 15.7598 20.9243C15.182 19.9884 14.8931 18.8369 14.8931 17.4697V5.72656H18.5552V17.4697C18.5552 18.2673 18.6813 18.9183 18.9336 19.4229C19.1859 19.9274 19.548 20.2977 20.02 20.5337C20.5002 20.7697 21.0658 20.8877 21.7168 20.8877C22.3841 20.8877 22.9497 20.7697 23.4136 20.5337C23.8856 20.2977 24.2437 19.9274 24.4878 19.4229C24.7401 18.9183 24.8662 18.2673 24.8662 17.4697V5.72656ZM33.2036 5.72656H36.3042L40.8696 18.7759L45.4351 5.72656H48.5356L42.1147 23.5H39.6245L33.2036 5.72656ZM31.5312 5.72656H34.6196L35.1812 18.4463V23.5H31.5312V5.72656ZM47.1196 5.72656H50.2202V23.5H46.5581V18.4463L47.1196 5.72656ZM60.877 8.76611L56.043 23.5H52.1489L58.7529 5.72656H61.231L60.877 8.76611ZM64.8931 23.5L60.0469 8.76611L59.6562 5.72656H62.1587L68.7993 23.5H64.8931ZM64.6733 16.8838V19.7524H55.2861V16.8838H64.6733ZM76.8804 5.72656V23.5H73.2305V5.72656H76.8804ZM82.3491 5.72656V8.59521H67.8472V5.72656H82.3491ZM88.3306 5.72656V23.5H84.6807V5.72656H88.3306ZM102.063 17.604H105.713C105.64 18.8003 105.311 19.8623 104.725 20.79C104.147 21.7178 103.337 22.4421 102.295 22.9629C101.262 23.4837 100.017 23.7441 98.5601 23.7441C97.4207 23.7441 96.3994 23.5488 95.4961 23.1582C94.5928 22.7594 93.8197 22.1898 93.1768 21.4492C92.542 20.7087 92.0578 19.8135 91.7241 18.7637C91.3905 17.7139 91.2236 16.5379 91.2236 15.2358V14.0029C91.2236 12.7008 91.3945 11.5249 91.7363 10.4751C92.0863 9.41715 92.5827 8.5179 93.2256 7.77734C93.8766 7.03678 94.6538 6.46712 95.5571 6.06836C96.4604 5.6696 97.4696 5.47021 98.5845 5.47021C100.066 5.47021 101.315 5.73877 102.332 6.27588C103.357 6.81299 104.151 7.55355 104.712 8.49756C105.282 9.44157 105.624 10.5158 105.738 11.7202H102.076C102.035 11.0041 101.893 10.3978 101.648 9.90137C101.404 9.39681 101.034 9.01839 100.538 8.76611C100.049 8.5057 99.3983 8.37549 98.5845 8.37549C97.9741 8.37549 97.4411 8.48942 96.9854 8.71729C96.5296 8.94515 96.1471 9.29102 95.8379 9.75488C95.5286 10.2188 95.2967 10.8047 95.1421 11.5127C94.9956 12.2126 94.9224 13.0345 94.9224 13.9785V15.2358C94.9224 16.1554 94.9915 16.9652 95.1299 17.665C95.2682 18.3568 95.4798 18.9427 95.7646 19.4229C96.0576 19.8949 96.432 20.2529 96.8877 20.4971C97.3516 20.7331 97.909 20.8511 98.5601 20.8511C99.325 20.8511 99.9557 20.729 100.452 20.4849C100.949 20.2407 101.327 19.8786 101.587 19.3984C101.856 18.9183 102.015 18.3201 102.063 17.604Z" fill="black"/>
<path d="M135.73 21.5835V23.5H126.319V21.5835H135.73ZM126.795 5.72656V23.5H124.439V5.72656H126.795ZM134.485 13.3682V15.2847H126.319V13.3682H134.485ZM135.608 5.72656V7.65527H126.319V5.72656H135.608ZM144.385 20.8022L149.622 5.72656H152.173L145.594 23.5H143.775L144.385 20.8022ZM139.49 5.72656L144.678 20.8022L145.325 23.5H143.506L136.939 5.72656H139.49ZM165.857 21.5835V23.5H156.446V21.5835H165.857ZM156.922 5.72656V23.5H154.566V5.72656H156.922ZM164.612 13.3682V15.2847H156.446V13.3682H164.612ZM165.735 5.72656V7.65527H156.446V5.72656H165.735ZM182.447 5.72656V23.5H180.079L171.131 9.7915V23.5H168.775V5.72656H171.131L180.115 19.4717V5.72656H182.447ZM192.823 5.72656V23.5H190.503V5.72656H192.823ZM198.536 5.72656V7.65527H184.803V5.72656H198.536ZM210.45 19.0078C210.45 18.5928 210.385 18.2266 210.254 17.9092C210.132 17.5837 209.913 17.2907 209.595 17.0303C209.286 16.7699 208.855 16.5216 208.301 16.2856C207.756 16.0496 207.064 15.8096 206.226 15.5654C205.347 15.305 204.554 15.0161 203.846 14.6987C203.138 14.3732 202.531 14.0029 202.027 13.5879C201.522 13.1729 201.136 12.6968 200.867 12.1597C200.599 11.6226 200.464 11.0081 200.464 10.3164C200.464 9.62467 200.607 8.98584 200.892 8.3999C201.176 7.81396 201.583 7.30534 202.112 6.87402C202.649 6.43457 203.288 6.09277 204.029 5.84863C204.769 5.60449 205.595 5.48242 206.507 5.48242C207.841 5.48242 208.973 5.73877 209.9 6.25146C210.836 6.75602 211.548 7.41927 212.037 8.24121C212.525 9.05501 212.769 9.92578 212.769 10.8535H210.425C210.425 10.1862 210.283 9.59619 209.998 9.0835C209.713 8.56266 209.282 8.15576 208.704 7.86279C208.126 7.56169 207.394 7.41113 206.507 7.41113C205.669 7.41113 204.977 7.53727 204.432 7.78955C203.886 8.04183 203.479 8.38363 203.211 8.81494C202.951 9.24626 202.82 9.73861 202.82 10.292C202.82 10.6663 202.898 11.0081 203.052 11.3174C203.215 11.6185 203.463 11.8993 203.797 12.1597C204.139 12.4201 204.57 12.6602 205.091 12.8799C205.62 13.0996 206.25 13.3112 206.983 13.5146C207.992 13.7995 208.863 14.1169 209.595 14.4668C210.328 14.8167 210.93 15.2114 211.402 15.6509C211.882 16.0822 212.236 16.5745 212.464 17.1279C212.7 17.6732 212.818 18.2917 212.818 18.9834C212.818 19.7077 212.671 20.3628 212.378 20.9487C212.085 21.5347 211.666 22.0352 211.121 22.4502C210.576 22.8652 209.921 23.1867 209.156 23.4146C208.399 23.6343 207.553 23.7441 206.617 23.7441C205.795 23.7441 204.985 23.6302 204.188 23.4023C203.398 23.1745 202.678 22.8327 202.027 22.377C201.384 21.9212 200.867 21.3597 200.477 20.6924C200.094 20.0169 199.903 19.2357 199.903 18.3486H202.247C202.247 18.959 202.365 19.4839 202.601 19.9233C202.837 20.3547 203.158 20.7127 203.565 20.9976C203.98 21.2824 204.448 21.494 204.969 21.6323C205.498 21.7625 206.047 21.8276 206.617 21.8276C207.439 21.8276 208.134 21.7137 208.704 21.4858C209.274 21.258 209.705 20.9325 209.998 20.5093C210.299 20.0861 210.45 19.5856 210.45 19.0078Z" fill="black"/>
<line x1="115.437" y1="5.71118" x2="115.437" y2="24.2889" stroke="black" stroke-width="0.5"/>
</svg>
