<?xml version="1.0" encoding="utf-8" ?>
<svg xmlns="http://www.w3.org/2000/svg" xmlns:xlink="http://www.w3.org/1999/xlink" width="1024" height="1024">
	<path fill="none" transform="scale(2 2)" d="M0 0L0 512L512 512L512 0L0 0Z"/>
	<path fill="white" transform="scale(2 2)" d="M179.591 127.358L157.902 127.483C159.017 117.346 165.926 108.804 176.156 106.982C178.703 106.529 181.323 106.504 183.901 106.447L183.851 91.8286L205.684 91.9211L205.797 127.44L179.591 127.358Z"/>
	<path fill="white" transform="scale(2 2)" d="M353.834 127.427L306.172 127.328L306.063 98.6506C306.067 96.3608 306.027 94.0929 306.277 91.813L328.078 92.0536L328.131 106.422C339.746 106.309 349.555 110.657 352.985 122.957C353.394 124.42 353.596 125.93 353.834 127.427Z"/>
	<path fill="white" transform="scale(2 2)" d="M266.517 127.238L220.494 127.3L220.528 106.311C221.842 106.521 223.149 106.485 224.475 106.489L245.145 106.44L245.294 91.8605L266.84 91.9273L266.534 106.536L291.248 106.4L291.216 127.229L266.517 127.238Z"/>
	<path fill="white" transform="scale(2 2)" d="M347.646 290.275C340.667 297.974 333.194 297.01 324.095 297.01L185.003 297.008C182.333 297.008 179.556 297.156 176.904 296.829C165.082 295.373 158.149 284.873 158.149 273.57L158.151 156.743C158.15 152.749 158.34 148.653 158.044 144.672L353.957 144.741C353.689 148.655 353.872 152.68 353.871 156.605L353.877 272.703C353.937 279.714 352.571 284.849 347.646 290.275ZM220.158 163.519C207.916 164.612 198.035 170.088 190.094 179.59C175.276 197.322 178.831 224.789 196.326 239.333C200.215 242.566 204.529 245.319 208.657 248.235L245.682 273.673C257.147 281.461 256.191 280.417 268.249 272.406L287.784 259.275L304.689 247.45C308.288 244.958 312.062 242.62 315.438 239.825C323.534 233.123 328.574 223.577 330.449 213.305C337.19 176.378 294.564 149.815 264.291 171.192C261.153 173.409 258.531 176.189 255.866 178.935C247.172 169.666 238.285 163.936 224.914 163.472C223.407 163.42 221.647 163.299 220.158 163.519Z"/>
	<path fill="white" transform="scale(2 2)" d="M291.303 234.453L260.555 256.016C259.072 257.048 257.58 258.164 255.937 258.925L208.682 225.98C190.579 211.322 199.257 183.361 221.949 181.417C231.476 180.402 241.634 187.322 245.308 195.954C246.304 198.295 246.729 201.261 248.19 203.339C252.081 208.876 261.829 207.592 264.653 201.657C265.635 199.591 266.012 197.277 267.032 195.187C275.389 178.058 297.931 176.877 308.678 192.01C315.149 201.121 314.166 214.54 306.692 222.76C304.318 225.371 301.452 227.384 298.572 229.386L291.303 234.453Z"/>
	<path fill="white" transform="scale(2 2)" d="M65 448.82L65 337.076L80.589 337.076L80.589 437.646L109.146 437.646L109.146 448.82L65 448.82ZM129.977 449.924C126.85 449.924 124.413 449.096 122.666 447.441C120.918 445.785 119.7 443.716 119.01 441.233C118.32 438.75 117.975 436.22 117.975 433.645L117.975 369.082L132.736 369.082L132.736 429.231C132.736 432.082 133.15 434.312 133.978 435.921C134.806 437.531 136.507 438.336 139.082 438.336C140.738 438.336 142.462 437.853 144.256 436.887C146.049 435.921 147.774 434.749 149.429 433.369L149.429 369.082L164.19 369.082L164.19 448.82L149.429 448.82L149.429 440.957C146.854 443.44 143.934 445.555 140.669 447.303C137.404 449.05 133.84 449.924 129.977 449.924ZM179.228 448.82L179.228 369.082L192.885 369.082L192.885 376.669C195.552 373.634 198.495 371.381 201.714 369.91C204.933 368.438 208.244 367.702 211.647 367.702C214.59 367.702 217.234 368.438 219.58 369.91C221.925 371.381 223.604 374.002 224.615 377.773C227.467 374.278 230.571 371.726 233.927 370.116C237.283 368.507 240.801 367.702 244.481 367.702C247.056 367.702 249.402 368.323 251.516 369.565C253.631 370.806 255.334 372.784 256.621 375.497C257.908 378.21 258.552 381.774 258.552 386.188L258.552 448.82L245.032 448.82L245.032 387.154C245.032 383.291 244.412 380.693 243.17 379.36C241.928 378.026 240.25 377.359 238.135 377.359C236.111 377.359 233.996 377.934 231.789 379.084C229.581 380.233 227.558 381.82 225.719 383.843C225.719 384.211 225.719 384.579 225.719 384.947C225.719 385.315 225.719 385.729 225.719 386.188L225.719 448.82L212.199 448.82L212.199 387.154C212.199 383.291 211.578 380.693 210.337 379.36C209.095 378.026 207.416 377.359 205.301 377.359C203.277 377.359 201.186 377.934 199.024 379.084C196.863 380.233 194.817 381.82 192.885 383.843L192.885 448.82L179.228 448.82ZM285.04 449.924C281.912 449.924 279.153 449.027 276.762 447.234C274.372 445.44 272.486 443.141 271.106 440.336C269.727 437.531 269.037 434.565 269.037 431.438C269.037 426.471 269.865 422.287 271.52 418.884C273.175 415.481 275.452 412.607 278.349 410.262C281.246 407.916 284.602 405.87 288.42 404.123C292.237 402.375 296.26 400.674 300.491 399.018L300.491 393.362C300.491 390.143 300.307 387.476 299.939 385.361C299.571 383.245 298.812 381.659 297.663 380.601C296.513 379.543 294.789 379.015 292.489 379.015C290.466 379.015 288.833 379.474 287.592 380.394C286.35 381.314 285.454 382.625 284.902 384.326C284.35 386.027 284.074 388.028 284.074 390.327L284.074 394.328L269.451 393.776C269.634 384.947 271.658 378.44 275.521 374.255C279.384 370.071 285.361 367.978 293.455 367.978C301.364 367.978 306.975 370.14 310.286 374.462C313.597 378.785 315.252 385.039 315.252 393.224L315.252 429.644C315.252 432.128 315.321 434.519 315.459 436.818C315.597 439.117 315.78 441.256 316.011 443.233C316.241 445.21 316.448 447.073 316.632 448.82L303.112 448.82C302.836 447.349 302.491 445.486 302.077 443.233C301.663 440.98 301.364 438.933 301.181 437.094C300.26 440.221 298.49 443.141 295.869 445.854C293.248 448.567 289.638 449.924 285.04 449.924ZM290.834 437.232C292.306 437.232 293.685 436.818 294.973 435.99C296.26 435.163 297.41 434.22 298.421 433.162C299.433 432.105 300.122 431.254 300.491 430.61L300.491 407.985C298.191 409.273 296.031 410.561 294.007 411.848C291.983 413.136 290.213 414.492 288.696 415.918C287.178 417.343 285.982 418.953 285.109 420.746C284.235 422.54 283.798 424.586 283.798 426.885C283.798 430.104 284.395 432.634 285.592 434.473C286.788 436.312 288.534 437.232 290.834 437.232ZM350.569 449.924C346.43 449.924 343.096 449.142 340.567 447.579C338.038 446.015 336.198 443.808 335.049 440.957C333.9 438.106 333.324 434.749 333.324 430.886L333.324 378.877L324.909 378.877L324.909 369.082L333.324 369.082L333.324 345.767L348.086 345.767L348.086 369.082L360.915 369.082L360.915 378.877L348.086 378.877L348.086 429.92C348.086 433.047 348.592 435.278 349.603 436.611C350.614 437.945 352.546 438.612 355.397 438.612C356.133 438.612 356.984 438.566 357.949 438.474C358.915 438.382 359.857 438.29 360.778 438.198L360.778 449.096C358.939 449.372 357.236 449.579 355.673 449.717C354.11 449.855 352.408 449.924 350.569 449.924ZM372.78 448.82L372.78 369.082L387.541 369.082L387.541 448.82L372.78 448.82ZM372.78 357.218L372.78 341.767L387.541 341.767L387.541 357.218L372.78 357.218ZM425.203 449.924C418.673 449.924 413.729 448.613 410.373 445.992C407.016 443.371 404.762 439.669 403.613 434.887C402.464 430.104 401.888 424.54 401.888 418.194L401.888 399.846C401.888 393.132 402.486 387.407 403.682 382.67C404.878 377.934 407.154 374.301 410.511 371.772C413.867 369.243 418.765 367.978 425.203 367.978C430.997 367.978 435.481 368.921 438.654 370.806C441.827 372.692 444.01 375.497 445.207 379.222C446.403 382.946 447 387.568 447 393.086L447 397.777L433.618 397.777L433.618 392.948C433.618 389.453 433.388 386.694 432.928 384.671C432.469 382.647 431.641 381.176 430.445 380.256C429.249 379.336 427.548 378.877 425.341 378.877C422.95 378.877 421.11 379.428 419.823 380.532C418.536 381.636 417.684 383.498 417.27 386.119C416.857 388.741 416.65 392.304 416.65 396.811L416.65 421.919C416.65 428.725 417.294 433.277 418.581 435.577C419.868 437.876 422.168 439.025 425.479 439.025C427.962 439.025 429.779 438.451 430.928 437.301C432.077 436.151 432.814 434.519 433.135 432.404C433.457 430.288 433.618 427.897 433.618 425.23L433.618 418.746L447 418.746L447 424.264C447 429.599 446.379 434.197 445.138 438.06C443.896 441.923 441.689 444.866 438.516 446.889C435.343 448.912 430.905 449.924 425.203 449.924Z"/>
</svg>
